<?xml version="1.0" encoding="utf-8"?>
<!-- Generator: Adobe Illustrator 22.1.0, SVG Export Plug-In . SVG Version: 6.00 Build 0)  -->
<svg version="1.1" id="Capa_1" xmlns="http://www.w3.org/2000/svg" xmlns:xlink="http://www.w3.org/1999/xlink" x="0px" y="0px"
	 viewBox="0 0 512 512" style="enable-background:new 0 0 512 512;" xml:space="preserve">
<g>
	<g>
		<path d="M247.5,466.8l-27.1-37.5V176.5c0-4.2-3.4-7.5-7.5-7.5s-7.5,3.4-7.5,7.5v247.8H80.9v-56.2c0-4.2-3.4-7.5-7.5-7.5
			s-7.5,3.4-7.5,7.5v61l-27.4,37.8c-1.1,1.5-1.5,3.3-1.4,5.1v32.6c0,4.2,3.4,7.5,7.5,7.5h196.7c4.2,0,7.5-3.4,7.5-7.5v-32.6
			C249.1,470.1,248.6,468.3,247.5,466.8z M77,439.3h132l17.7,24.4H59.4L77,439.3z M233.9,497H52.2v-18.2h181.7V497z"/>
	</g>
</g>
<g>
	<g>
		<path d="M143,87.8c-4.2,0-7.5,3.4-7.5,7.5v294.1c0,4.2,3.4,7.5,7.5,7.5s7.5-3.4,7.5-7.5V95.3C150.5,91.1,147.2,87.8,143,87.8z"/>
	</g>
</g>
<g>
	<g>
		<path d="M109.7,87.8c-4.2,0-7.5,3.4-7.5,7.5v294.1c0,4.2,3.4,7.5,7.5,7.5s7.5-3.4,7.5-7.5V95.3C117.3,91.1,113.9,87.8,109.7,87.8z
			"/>
	</g>
</g>
<g>
	<g>
		<path d="M176.3,87.8c-4.2,0-7.5,3.4-7.5,7.5v294.1c0,4.2,3.4,7.5,7.5,7.5s7.5-3.4,7.5-7.5V95.3C183.8,91.1,180.5,87.8,176.3,87.8z
			"/>
	</g>
</g>
<g>
	<g>
		<path d="M509.8,466.9l-27-37.4V189c0-2.6-1.3-5-3.5-6.4c-2.2-1.4-4.9-1.5-7.2-0.4l-21.6,10.3L410.2,164c-1.7-1.2-3.9-1.7-6-1.2
			l-35.3,7.8l-26.7-36.4c-1.9-2.6-5.3-3.7-8.4-2.7c-3.1,1-5.2,3.9-5.2,7.1v146.6c0,4.2,3.4,7.5,7.5,7.5s7.5-3.4,7.5-7.5V161.6
			l16,21.9c1.8,2.4,4.8,3.5,7.7,2.9l36.9-8.1l41.1,29.1c2.2,1.6,5.1,1.8,7.6,0.7l14.9-7.1v223.5H343.6v-109c0-4.2-3.4-7.5-7.5-7.5
			s-7.5,3.4-7.5,7.5v114.2l-27,37.4c-1.1,1.5-1.5,3.3-1.4,5.1v32.5c0,4.2,3.4,7.5,7.5,7.5h196c4.2,0,7.5-3.4,7.5-7.5V472
			C511.4,470.2,510.9,468.4,509.8,466.9z M339.9,439.4h131.5l17.6,24.3H322.4L339.9,439.4z M496.2,497h-181v-18.1h181L496.2,497
			L496.2,497z"/>
	</g>
</g>
<g>
	<g>
		<path d="M405.7,217.2c-4.2,0-7.5,3.4-7.5,7.5v164.7c0,4.2,3.4,7.5,7.5,7.5s7.5-3.4,7.5-7.5V224.7
			C413.2,220.6,409.8,217.2,405.7,217.2z"/>
	</g>
</g>
<g>
	<g>
		<path d="M372.4,217.2c-4.2,0-7.5,3.4-7.5,7.5v164.7c0,4.2,3.4,7.5,7.5,7.5s7.5-3.4,7.5-7.5V224.7
			C379.9,220.6,376.5,217.2,372.4,217.2z"/>
	</g>
</g>
<g>
	<g>
		<path d="M439,217.2c-4.2,0-7.5,3.4-7.5,7.5v164.7c0,4.2,3.4,7.5,7.5,7.5c4.2,0,7.5-3.4,7.5-7.5V224.7
			C446.5,220.6,443.1,217.2,439,217.2z"/>
	</g>
</g>
<g>
	<g>
		<path d="M278,0H8.3C4.1,0,0.7,3.4,0.7,7.5v49.2c0,22.1,18,40.1,40.1,40.1c9.5,0,18.2-3.3,25.1-8.8v250c0,4.2,3.4,7.5,7.5,7.5
			s7.5-3.4,7.5-7.5V64.2h124.4v82.1c0,4.2,3.4,7.5,7.5,7.5s7.5-3.4,7.5-7.5V88c6.9,5.5,15.6,8.8,25,8.8c22.1,0,40.1-18,40.1-40.1
			V7.5C285.5,3.4,282.2,0,278,0z M270.5,56.7c0,13.8-11.2,25-25,25c-13.6,0-24.6-10.8-25-24.3c0.2-9,7.5-16.2,16.5-16.2
			c6.5,0,11.7,5.3,11.7,11.7c0,1.2-0.4,2.1-1.1,2.7c-0.8,0.7-1.6,0.8-1.9,0.8c-3.9-1.3-8.1,0.7-9.5,4.6c-1.4,3.9,0.7,8.2,4.6,9.6
			c1.6,0.6,3.3,0.8,5,0.8c3.5,0,7.2-1.2,10.3-3.3c4.9-3.5,7.7-9,7.7-15.2c0-14.8-12-26.8-26.8-26.8c-14.4,0-26.6,9.7-30.4,23H79.5
			c-3.8-13.2-16-23-30.4-23c-14.8,0-26.8,12-26.8,26.8c0,6.2,2.8,11.7,7.7,15.2c3.1,2.2,6.8,3.3,10.3,3.3c1.7,0,3.4-0.3,5-0.8
			c3.9-1.4,6-5.7,4.6-9.6c-1.4-3.9-5.6-5.9-9.5-4.6c-0.3,0-1.1-0.1-1.9-0.8c-0.7-0.6-1.1-1.5-1.1-2.7c0-6.5,5.3-11.7,11.7-11.7
			c9.1,0,16.6,7.4,16.6,16.6c0,0.4,0,0.8,0.1,1.2c-1.2,12.7-11.9,22.7-24.9,22.7c-13.8,0-25-11.2-25-25V15h254.7V56.7z"/>
	</g>
</g>
</svg>
