<?xml version="1.0" encoding="utf-8"?>
<!-- Generator: Adobe Illustrator 22.1.0, SVG Export Plug-In . SVG Version: 6.00 Build 0)  -->
<svg version="1.1" id="Layer_1" xmlns="http://www.w3.org/2000/svg" xmlns:xlink="http://www.w3.org/1999/xlink" x="0px" y="0px"
	 viewBox="0 0 512 512" style="enable-background:new 0 0 512 512;" xml:space="preserve">
<g>
	<g>
		<g>
			<path d="M409.6,238.9c0-52.2-17-95.2-17.7-97c-1.8-4.4-6.7-6.5-11.1-4.8c-4.4,1.8-6.5,6.7-4.8,11.1c0.2,0.4,16.5,41.7,16.5,90.7
				c0,16.4-2,28.4-4.2,41.3c-2.2,12.9-4.4,26.3-4.4,44.1c0,34.8,8.5,68.9,8.8,70.3c1,3.9,4.4,6.5,8.3,6.5c0.7,0,1.4-0.1,2.1-0.3
				c4.6-1.2,7.3-5.8,6.2-10.4c-0.1-0.3-8.3-33.5-8.3-66.2c0-16.4,2-28.5,4.2-41.3C407.4,270,409.6,256.7,409.6,238.9z"/>
			<path d="M307.2,213.3c4.7,0,8.5-3.8,8.5-8.5v-0.5l8,0.5c0.2,0,0.4,0,0.5,0c4.5,0,8.2-3.5,8.5-8c0.3-4.7-3.3-8.7-8-9l-34.1-2.1
				c-4.7-0.2-8.7,3.3-9,8c-0.3,4.7,3.3,8.7,8,9l9.1,0.6v1.6C298.7,209.5,302.5,213.3,307.2,213.3z"/>
			<path d="M204.8,213.3c4.7,0,8.5-3.8,8.5-8.5v-1.6l9.1-0.6c4.7-0.3,8.3-4.3,8-9s-4.3-8.3-9.1-8l-34.1,2.1c-4.7,0.3-8.3,4.3-8,9
				c0.3,4.5,4,8,8.5,8c0.2,0,0.4,0,0.5,0l8-0.5v0.5C196.3,209.5,200.1,213.3,204.8,213.3z"/>
			<path d="M110.9,119.4h45.9l-2.4,4.7c-2.1,4.2-0.4,9.3,3.8,11.5c1.2,0.6,2.5,0.9,3.8,0.9c3.1,0,6.1-1.7,7.6-4.7l6.2-12.3h23.6
				l6.2,12.3c1.5,3,4.5,4.7,7.6,4.7c1.3,0,2.6-0.3,3.8-0.9c4.2-2.1,5.9-7.2,3.8-11.5l-2.4-4.7h74.8l-2.4,4.7
				c-2.1,4.2-0.4,9.3,3.8,11.5c1.2,0.6,2.5,0.9,3.8,0.9c3.1,0,6.1-1.7,7.6-4.7l6.2-12.3h15.1l-2.4,4.7c-2.1,4.2-0.4,9.3,3.8,11.5
				c1.2,0.6,2.5,0.9,3.8,0.9c3.1,0,6.1-1.7,7.6-4.7l6.2-12.3h54.5c4.7,0,8.5-3.8,8.5-8.5s-3.8-8.5-8.5-8.5h-9.8
				c-7.4-39.7-33.9-76.5-67.7-93.2c-23.2-11.4-47-12-67.6-1.8c-20.3-10.2-44-9.7-67.1,1.7c-34.1,16.7-60.7,53.6-68.2,93.3h-9.8
				c-4.7,0-8.5,3.8-8.5,8.5S106.2,119.4,110.9,119.4z M196.4,24.3c19.5-9.5,39.1-9.5,55.2,0c2.7,1.6,6,1.6,8.7,0
				c21.1-12.3,42-6.8,55.8,0.1c28.2,14,50.4,44.5,57.7,77.9h-18.6l2.4-4.7c2.1-4.2,0.4-9.3-3.8-11.5c-4.2-2.1-9.3-0.4-11.5,3.8
				l-6.2,12.3h-66.3L263.6,90c-2.1-4.2-7.2-5.9-11.4-3.8c-4.2,2.1-5.9,7.2-3.8,11.5l2.4,4.7h-40.7L203.9,90
				c-2.1-4.2-7.2-5.9-11.5-3.8c-4.2,2.1-5.9,7.2-3.8,11.5l2.4,4.7h-52.7C145.5,68.9,167.9,38.3,196.4,24.3z"/>
			<path d="M380.2,436.6c-3.9-2.6-9.2-1.6-11.8,2.4c-18.3,27.4-18.5,63-18.5,64.5c0,4.7,3.8,8.5,8.5,8.5s8.5-3.8,8.5-8.5
				c0-0.3,0.2-31.8,15.6-55C385.2,444.5,384.1,439.2,380.2,436.6z"/>
			<path d="M511.6,500.7l-9.1-27.2c-8.4-25.4-21-63.6-142.4-63.6c-2.1,0-4.2,0.1-6,1.2c-1.2,0.7-19.1,11.6-36.6,35.1
				C283.6,464,251.4,496,250,497.4c-3.3,3.3-3.3,8.7,0,12.1c1.7,1.7,3.8,2.5,6,2.5c2.2,0,4.4-0.8,6-2.5c0.2-0.2,16.2-16.1,36.7-31.2
				c-3.1,7-5.9,14.6-8.3,22.8c-1.3,4.5,1.3,9.3,5.9,10.5c4.5,1.3,9.3-1.3,10.5-5.9c5.6-19.5,14.1-35,22.8-47.1
				c1.2-1,2.3-2.3,2.7-3.7c12.1-15.8,24.1-24.9,28.6-27.9c108.2,0.1,118.1,30,125.3,51.9l9.1,27.3c1.2,3.6,4.5,5.8,8.1,5.8
				c0.9,0,1.8-0.1,2.7-0.4C510.6,510,513.1,505.2,511.6,500.7z"/>
			<path d="M365.4,327c16.2-47.5,18.5-94.3,18.6-96.2c0.2-4.7-3.4-8.7-8.1-8.9c-4.6-0.1-8.7,3.4-8.9,8.1c0,0.7-1.3,25.1-7.9,55.7
				c-10.8,9.3-31.6,16.2-45.1,19.7c-4-12.9-16.5-34.1-56.5-40.7c-0.9-0.2-1.9-0.2-2.8,0c-40,6.7-52.6,27.8-56.5,40.7
				c-13.4-3.5-34.3-10.4-45-19.7c-6.6-30.6-8-55.1-8-55.7c-0.2-4.7-4.3-8.4-8.9-8.1c-4.7,0.2-8.3,4.2-8.1,8.9
				c0.1,2,2.4,48.7,18.6,96.2c22.2,65.2,60,99.6,109.4,99.6S343.2,392.2,365.4,327z M159.1,309.5c19.7,9.6,42.7,14.3,44,14.6
				c2.5,0.5,5-0.2,7-1.7c2-1.6,3.1-4,3.2-6.5c0-1.1,1.2-26.6,42.7-34.1c41.5,7.5,42.6,33,42.7,34c0,2.6,1.1,5,3.1,6.6
				c1.5,1.3,3.5,1.9,5.4,1.9c0.6,0,1.1-0.1,1.7-0.2c1.3-0.3,24.3-5,44.1-14.6c-14.1,48.1-42,100.1-97,100.1
				C201.1,409.5,173.2,357.5,159.1,309.5z"/>
			<path d="M281.6,315.7c0-4.7-3.8-8.5-8.5-8.5h-34.1c-4.7,0-8.5,3.8-8.5,8.5s3.8,8.5,8.5,8.5h34.1
				C277.8,324.2,281.6,320.4,281.6,315.7z"/>
			<path d="M111,324.2c0,32.6-8.2,65.9-8.3,66.2c-1.1,4.6,1.6,9.2,6.2,10.4c0.7,0.2,1.4,0.3,2.1,0.3c3.8,0,7.3-2.6,8.3-6.5
				c0.4-1.4,8.8-35.5,8.8-70.3c0-17.8-2.2-31.1-4.4-44.1c-2.1-12.8-4.2-24.9-4.2-41.3c0-48.8,16.3-90.3,16.5-90.7
				c1.7-4.4-0.4-9.3-4.8-11.1c-4.4-1.8-9.3,0.4-11.1,4.7c-0.7,1.8-17.7,44.8-17.7,97c0,17.8,2.2,31.1,4.4,44.1
				C108.9,295.8,111,307.9,111,324.2z"/>
			<path d="M153.6,409.5c-122.9,0-135.1,36.9-144.1,63.8l-9.1,27.3c-1.5,4.5,0.9,9.3,5.4,10.8c0.9,0.3,1.8,0.4,2.7,0.4
				c3.6,0,6.9-2.3,8.1-5.8l9.1-27.4c7.7-23.2,17.3-52.1,127.9-52.1c4.7,0,8.5-3.8,8.5-8.5S158.3,409.5,153.6,409.5z"/>
		</g>
	</g>
</g>
</svg>
