<?xml version="1.0" encoding="utf-8"?>
<!-- Generator: Adobe Illustrator 22.1.0, SVG Export Plug-In . SVG Version: 6.00 Build 0)  -->
<svg version="1.1" id="Capa_1" xmlns="http://www.w3.org/2000/svg" xmlns:xlink="http://www.w3.org/1999/xlink" x="0px" y="0px"
	 viewBox="0 0 512 512" style="enable-background:new 0 0 512 512;" xml:space="preserve">
<g>
	<path d="M344.9,447.1h-7.7v-36.7h6.9l-12.2-12.2v-20.1h5.3l-8.3-8.3c0,0-2-31.2-16.1-62.6c-14.1-31.3-33.2-47.3-33.2-47.3v-10.9
		l4.4-3.5v-5.6h-5v-37.6l-10.3-12.9V175c0,0,2.8-0.6,2.5-2.2c-0.4-1.6-4.4-3.5-4.4-3.5v-19.4c0,0,3.5-0.3,3.5-1.8
		c0-1.6-5.3-2.9-5.3-2.9v-20.4c0,0,1.9,0,2.2-1.2c0.3-1.3-2.8-2.6-2.8-2.6V98.7l-6-98.7h-4.4l-5.9,98.7V121c0,0-3.1,1.3-2.9,2.6
		c0.3,1.2,2.2,1.2,2.2,1.2v20.4c0,0-5.3,1.3-5.3,2.9s3.4,1.8,3.4,1.8v19.4c0,0-4,1.9-4.4,3.5c-0.4,1.5,2.5,2.1,2.5,2.1v14.4
		l-10.3,12.9v37.6h-5v5.7l4.4,3.5v11c0,0-19.1,16-33.2,47.3c-14.1,31.3-16.2,62.5-16.2,62.5l-8.2,8.3h5.2v20.1l-12.1,12.2h6.9v36.7
		h-7.7L151.3,471h9.3v41h191v-41h9.3L344.9,447.1z M185.3,372h142.3l3.3,3.7H181.1L185.3,372z M185.1,399.6h142.2l8.7,8.9H175.9
		L185.1,399.6z M231.5,466.3l24.6-11.1l24.5,11.1H231.5z M159.4,466.3l10.3-15H251l-33.2,15H159.4z M294.3,466.3l-33.2-15h80.8
		l10.9,15H294.3z"/>
</g>
</svg>
