<?xml version="1.0" encoding="utf-8"?>
<!-- Generator: Adobe Illustrator 22.1.0, SVG Export Plug-In . SVG Version: 6.00 Build 0)  -->
<svg version="1.1" id="Layer_1" xmlns="http://www.w3.org/2000/svg" xmlns:xlink="http://www.w3.org/1999/xlink" x="0px" y="0px"
	 viewBox="0 0 512 512" style="enable-background:new 0 0 512 512;" xml:space="preserve">
<g>
	<g>
		<g>
			<rect x="41.3" y="429.4" width="16.5" height="16.5"/>
			<rect x="82.6" y="429.4" width="16.5" height="16.5"/>
			<rect x="41.3" y="338.6" width="16.5" height="16.5"/>
			<rect x="82.6" y="338.6" width="16.5" height="16.5"/>
			<rect x="247.7" y="305.5" width="16.5" height="49.5"/>
			<rect x="198.2" y="305.5" width="16.5" height="49.5"/>
			<rect x="148.6" y="313.8" width="16.5" height="41.3"/>
			<rect x="346.8" y="313.8" width="16.5" height="41.3"/>
			<rect x="297.3" y="305.5" width="16.5" height="49.5"/>
			<path d="M495.5,272.5V256H479v16.5h-90.8v-24.8h16.5v-22l-24.8-10.2v-17.3h-16.5v10.5l-33-13.6v-54.7h16.5v-16.5h-16.5v-33h-2.5
				c-5.6-12.7-20-29.6-47.1-32.6V24.8h-16.5V0h-16.5v24.8h-16.5v33.5c-27.1,2.9-41.5,19.8-47.1,32.6h-2.5v33h-16.5v16.5h16.5v54.7
				l-33,13.6v-10.5h-16.5v17.3l-24.8,10.2v22h16.5v24.8H33V256H16.5v16.5H0V512h512V272.5H495.5z M123.9,495.5H16.5V479h107.4
				L123.9,495.5L123.9,495.5z M123.9,462.5H16.5v-49.5h107.4L123.9,462.5L123.9,462.5z M123.9,396.4H99.1v-24.8H82.6v24.8H57.8
				v-24.8H41.3v24.8H16.5v-74.3h107.4L123.9,396.4L123.9,396.4z M123.9,305.5H16.5V289h107.4L123.9,305.5L123.9,305.5z M308.8,90.8
				h-12.9c-1-4.3-2.6-8.9-4.7-13.3C299.8,80.8,305.3,86.1,308.8,90.8z M247.7,41.3h16.5v16.5h-16.5V41.3z M247.7,74.3h16.5
				c7.6,0,12,9.1,14.3,16.5h-45.2C235.7,83.4,240.1,74.3,247.7,74.3z M220.8,77.6c-2.1,4.4-3.7,9-4.7,13.3h-12.9
				C206.7,86.1,212.2,80.9,220.8,77.6z M198.2,107.4h115.6v16.5H198.2C198.2,123.9,198.2,107.4,198.2,107.4z M313.8,140.4v47.9
				l-8.3-3.4v-44.5H313.8z M289,140.4v37.7l-33-13.6l-33,13.6v-37.7H289z M198.2,140.4h8.3v44.5l-8.3,3.4V140.4z M156.9,495.5h-16.5
				V479h16.5V495.5z M198.2,495.5h-24.8V479h24.8L198.2,495.5L198.2,495.5z M247.7,495.5h-33V479h33V495.5z M297.3,495.5h-33V479h33
				V495.5z M338.6,495.5h-24.8V479h24.8V495.5z M371.6,495.5h-16.5V479h16.5V495.5z M371.6,462.5h-16.5v-24.8h-16.5v24.8h-24.8v-33
				h-16.5v33h-33v-33h-16.5v33h-33v-33h-16.5v33h-24.8v-24.8h-16.5v24.8h-16.5v-57.8h33v16.5h16.5v-16.5h33v16.5h16.5v-16.5h33v16.5
				H289v-16.5h33v16.5h16.5v-16.5h33V462.5z M140.4,388.1V280.8h33v107.4H140.4z M189.9,388.1V280.8h33v107.4H189.9z M239.5,388.1
				V280.8h33v107.4H239.5z M289,388.1V280.8h33v107.4H289z M371.6,388.1h-33V280.8h33V388.1z M371.6,264.3H140.4v-16.5h231.2V264.3z
				 M216.3,231.2l39.7-15.9l39.7,15.9H216.3z M371.6,231.2h-31.4L256,197.6l-84.2,33.7h-31.4h-3.1L256,182.4l118.7,48.9H371.6z
				 M388.1,289h107.4v16.5H388.1V289z M388.1,322.1h107.4v74.3h-24.8v-24.8h-16.5v24.8h-24.8v-24.8h-16.5v24.8h-24.8L388.1,322.1
				L388.1,322.1z M495.5,495.5H388.1V479h107.4V495.5z M495.5,462.5H388.1v-49.5h107.4V462.5z"/>
			<rect x="454.2" y="429.4" width="16.5" height="16.5"/>
			<rect x="412.9" y="429.4" width="16.5" height="16.5"/>
			<rect x="454.2" y="338.6" width="16.5" height="16.5"/>
			<rect x="412.9" y="338.6" width="16.5" height="16.5"/>
		</g>
	</g>
</g>
</svg>
