<?xml version="1.0" encoding="utf-8"?>
<!-- Generator: Adobe Illustrator 22.1.0, SVG Export Plug-In . SVG Version: 6.00 Build 0)  -->
<svg version="1.1" id="Layer_1" xmlns="http://www.w3.org/2000/svg" xmlns:xlink="http://www.w3.org/1999/xlink" x="0px" y="0px"
	 viewBox="0 0 512 512" style="enable-background:new 0 0 512 512;" xml:space="preserve">
<g>
	<g>
		<path d="M353.5,495H312c-11.4-18.1-7.4-81.1-0.6-122.5l16.7-86.6c5.2-27.2,6.2-55,2.8-82.5l-8.6-70.7l7.8-24.1
			c1.4-4.4,1.4-9.3-0.2-13.7l-20.4-56.2c-1.8-5-5.4-9.1-10.1-11.5L265.7,9.6c-0.4-0.2-0.8-0.4-1.2-0.6V8.5c0-4.7-3.8-8.5-8.5-8.5
			c-4.7,0-8.5,3.8-8.5,8.5v0.5c-0.4,0.2-0.8,0.4-1.2,0.6l-33.6,17.4c-4.7,2.4-8.3,6.5-10.1,11.5l-20.4,56.2
			c-1.6,4.4-1.7,9.3-0.2,13.7l7.8,24.1l-8.6,70.7c-3.4,27.5-2.4,55.3,2.8,82.5l16.7,86.6c6.9,41.5,10.9,104.5-0.6,122.5h-41.5
			c-4.7,0-8.5,3.8-8.5,8.5s3.8,8.5,8.5,8.5h195c4.7,0,8.5-3.8,8.5-8.5S358.2,495,353.5,495z M314.8,258.6h-35.6v-13.8h36.5
			C315.5,249.5,315.2,254,314.8,258.6z M277.1,148.8v-12.1h25.5l-4.7,12.1H277.1z M291.2,165.8l-3.2,8.1c-0.9,2.2-2.9,3.6-5.3,3.6
			c-3.1,0-5.7-2.5-5.7-5.7v-6.1H291.2z M277.1,119.6v-12.3c0.4-0.3,0.9-0.7,1.3-1.1h34.5l-4.3,13.4H277.1z M289.4,82.1V64.8l6.7-13
			l13.5,37.3h-21C289.2,86.9,289.4,84.5,289.4,82.1z M264.5,28.2l19.4,10.1l-3.3,6.4c-3.5-2.6-7.8-4.1-12.5-4.1h-3.6V28.2z
			 M268.1,57.6c2.4,0,4.3,1.9,4.3,4.3v20.3c0,8.1-6.6,14.8-14.8,14.8h-3.3c-8.1,0-14.8-6.6-14.8-14.8V61.8c0-2.4,1.9-4.3,4.3-4.3
			H268.1z M260,113.8v11c0,2.2-1.8,4-4,4s-4-1.8-4-4v-11c0.8,0.1,1.6,0.1,2.4,0.1h3.3C258.5,113.9,259.3,113.9,260,113.8z
			 M247.5,28.2v12.3h-3.6c-4.7,0-9,1.5-12.5,4.1l-3.3-6.4L247.5,28.2z M214.2,148.8l-4.7-12.1h25.5v12.1h0H214.2z M234.9,165.8v6.1
			c0,3.1-2.5,5.7-5.7,5.7c-2.3,0-4.5-1.5-5.3-3.6l-3.2-8.1L234.9,165.8L234.9,165.8z M215.9,51.8l6.7,13v17.3c0,2.4,0.3,4.8,0.8,7
			h-21L215.9,51.8z M233.6,106.2c0.4,0.4,0.9,0.7,1.3,1.1v12.3h-31.5l-4.3-13.4H233.6z M202.8,166.5l5.3,13.6
			c3.4,8.7,11.9,14.5,21.2,14.5c12.5,0,22.7-10.2,22.7-22.7v-26.3c1.3,0.3,2.7,0.4,4,0.4c1.4,0,2.7-0.1,4-0.4v26.3
			c0,12.5,10.2,22.7,22.7,22.7c9.4,0,17.8-5.7,21.2-14.5l5.3-13.6l4,32.8H198.8L202.8,166.5z M232.9,495h-14.3
			c5.1-14.5,6.8-36.6,5.1-66.9c-1.7-30.4-6.1-57.4-6.3-58.5c0-0.1,0-0.1,0-0.2l-16.7-86.7c-0.4-2.3-0.8-4.6-1.2-6.9h33.4L232.9,495
			L232.9,495z M232.9,258.6h-35.6c-0.4-4.6-0.7-9.2-0.9-13.8h36.5V258.6z M262.1,495h-12.1v-33.4h12.1V495z M262.1,444.5h-12.1V419
			h12.1V444.5z M262.1,401.9h-12.1v-25.5h12.1V401.9z M262.1,359.4h-12.1v-25.5h12.1V359.4z M262.1,316.8h-12.1v-25.5h12.1V316.8z
			 M262.1,274.2h-12.1v-29.4h12.1V274.2z M241.4,227.8h-45.1c0.1-3.8,0.3-7.7,0.6-11.5h118.1c0.3,3.8,0.5,7.7,0.6,11.5h-45.1H241.4z
			 M294.6,369.5c-0.2,1.1-4.7,28.2-6.3,58.5c-1.7,30.3,0,52.4,5.1,66.9h-14.3v0V275.7h33.4c-0.4,2.3-0.8,4.6-1.2,6.9l-16.7,86.7
			C294.6,369.4,294.6,369.5,294.6,369.5z"/>
	</g>
</g>
</svg>
